#!OML:ASF F:\VICON\USERDATA\INSTALL\rory3\rory3.ASF
:FULLY-SPECIFIED
:DEGREES
121
root 1.17735 17.7968 -16.649 6.83321 -1.45659 -0.123132
lowerback 6.59711 -0.556426 -1.07804
upperback 0.872496 -0.748137 2.32892
thorax -2.75356 -0.351742 3.07804
lowerneck -19.7832 -3.77661 -8.76723
upperneck 13.009 -3.6557 5.50952
head 7.50007 -1.66614 2.79936
rclavicle -1.32192e-014 2.54444e-014
rhumerus -30.4801 -6.76527 -81.0423
rradius 35.1805
rwrist 3.36483
rhand -10.8059 13.0646
rfingers 7.12502
rthumb 15.2075 -16.3565
lclavicle -1.32192e-014 2.54444e-014
lhumerus -27.7948 5.67356 86.9667
lradius 29.7664
lwrist -6.63386
lhand -18.3727 24.4145
lfingers 7.12502
lthumb 7.91067 54.2465
rfemur -10.7079 5.86763 20.5699
rtibia 21.5449
rfoot -11.05 -11.0644
rtoes -0.723518
lfemur -10.7574 -2.36793 -20.5846
ltibia 21.3957
lfoot -13.2148 4.74557
ltoes 0.480297
122
root 1.18178 17.7953 -16.6451 6.86342 -1.558 -0.141826
lowerback 6.47376 -0.539513 -1.04336
upperback 0.968948 -0.724955 2.31928
thorax -2.587 -0.343482 3.04321
lowerneck -19.8772 -3.77884 -8.80663
upperneck 12.9538 -3.64858 5.57204
head 7.49896 -1.65689 2.82668
rclavicle -1.77912e-014 7.15625e-015
rhumerus -30.3462 -6.75264 -81.1088
rradius 35.1383
rwrist 3.11235
rhand -10.9961 13.4271
rfingers 7.12502
rthumb 15.0243 -16.0078
lclavicle -1.77912e-014 7.15625e-015
lhumerus -27.5946 5.90381 86.8322
lradius 29.8445
lwrist -7.57519
lhand -17.457 26.4422
lfingers 7.12502
lthumb 8.79431 56.2389
rfemur -10.7302 5.85695 20.5597
rtibia 21.5219
rfoot -11.0518 -10.9854
rtoes -0.991568
lfemur -10.7604 -2.31633 -20.5934
ltibia 21.4544
lfoot -13.3124 4.7933
ltoes 0.632107
123
root 1.18624 17.7947 -16.6407 6.93099 -1.63877 -0.129268
lowerback 6.35968 -0.541881 -1.01533
upperback 0.98846 -0.727262 2.29689
thorax -2.50363 -0.346119 3.00223
lowerneck -19.7663 -3.72992 -8.84011
upperneck 12.8442 -3.58633 5.60936
head 7.44089 -1.62607 2.85255
rclavicle -3.77691e-015 -1.51076e-014
rhumerus -30.3799 -6.77305 -81.0895
rradius 35.2939
rwrist 3.67889
rhand -11.6418 14.3241
rfingers 7.12502
rthumb 14.4022 -15.1562
lclavicle -3.77691e-015 -1.51076e-014
lhumerus -27.5069 6.09795 86.6873
lradius 29.9293
lwrist -8.18692
lhand -16.5822 27.8119
lfingers 7.12502
lthumb 9.63844 57.5714
rfemur -10.8038 5.84533 20.5104
rtibia 21.5463
rfoot -11.0734 -10.9084
rtoes -0.882067
lfemur -10.8534 -2.20876 -20.6414
ltibia 21.5004
lfoot -13.3045 4.80888
ltoes 0.357964
124
root 1.18959 17.796 -16.6415 6.94739 -1.62284 -0.069509
lowerback 6.47823 -0.552237 -1.06864
upperback 0.869929 -0.743222 2.2881
thorax -2.69071 -0.350299 3.02793
lowerneck -19.3979 -3.69507 -8.86575
upperneck 12.7536 -3.56126 5.59831
head 7.348 -1.62117 2.85791
rclavicle 6.26172e-015 2.22639e-014
rhumerus -30.6276 -6.77026 -81.0122
rradius 35.4526
rwrist 4.33875
rhand -12.1796 15.2326
rfingers 7.12502
rthumb 13.8839 -14.2839
lclavicle 6.26172e-015 2.22639e-014
lhumerus -27.6897 5.9397 86.7254
lradius 29.9689
lwrist -7.6365
lhand -16.4844 26.8969
lfingers 7.12502
lthumb 9.73283 56.6521
rfemur -10.8329 5.75607 20.4273
rtibia 21.5975
rfoot -11.1582 -10.8684
rtoes -0.473619
lfemur -10.8868 -2.18334 -20.7263
ltibia 21.501
lfoot -13.297 4.8154
ltoes 0.358451
125
root 1.19368 17.7962 -16.6425 6.94287 -1.57346 -0.0215271
lowerback 6.57004 -0.572703 -1.09554
upperback 0.799014 -0.771402 2.28653
thorax -2.81324 -0.361911 3.04639
lowerneck -19.06 -3.71377 -8.90469
upperneck 12.6559 -3.59848 5.56434
head 7.26248 -1.64827 2.84987
rclavicle -1.14301e-014 1.03368e-014
rhumerus -30.7351 -6.66193 -80.9932
rradius 35.4407
rwrist 4.35536
rhand -12.1104 15.2545
rfingers 7.12502
rthumb 13.9506 -14.2574
lclavicle -1.14301e-014 1.03368e-014
lhumerus -27.787 5.87762 86.7743
lradius 29.8745
lwrist -7.41999
lhand -16.5716 25.6779
lfingers 7.12502
lthumb 9.64867 55.4369
rfemur -10.8392 5.62111 20.3655
rtibia 21.643
rfoot -11.2008 -10.7797
rtoes -0.762746
lfemur -10.8387 -2.26119 -20.7793
ltibia 21.4935
lfoot -13.3738 4.78253
ltoes 0.905503
126
root 1.1955 17.7958 -16.6429 6.92889 -1.61667 0.0342986
lowerback 6.54118 -0.571778 -1.17208
upperback 0.870714 -0.776659 2.28404
thorax -2.72173 -0.365565 3.08611
lowerneck -19.0461 -3.72423 -8.92303
upperneck 12.6445 -3.60515 5.54416
head 7.25689 -1.65437 2.8453
rclavicle 4.07509e-015 7.95139e-016
rhumerus -30.6375 -6.5968 -81.015
rradius 35.4745
rwrist 4.31334
rhand -12.0238 15.5685
rfingers 7.12502
rthumb 14.0341 -13.9377
lclavicle 4.07509e-015 7.95139e-016
lhumerus -27.6809 5.97603 86.756
lradius 29.7941
lwrist -7.59618
lhand -16.8205 25.7326
lfingers 7.12502
lthumb 9.4085 55.5026
rfemur -10.8765 5.63116 20.2878
rtibia 21.7009
rfoot -11.1792 -10.7049
rtoes -0.952021
lfemur -10.785 -2.26904 -20.8417
ltibia 21.4761
lfoot -13.4449 4.74897
ltoes 1.49359
